<?xml version="1.0" encoding="UTF-8" standalone="no"?>
<svg
   xmlns:dc="http://purl.org/dc/elements/1.1/"
   xmlns:cc="http://creativecommons.org/ns#"
   xmlns:rdf="http://www.w3.org/1999/02/22-rdf-syntax-ns#"
   xmlns:svg="http://www.w3.org/2000/svg"
   xmlns="http://www.w3.org/2000/svg"
   viewBox="0 0 2666.6667 2666.6667"
   height="2666.6667"
   width="2666.6667"
   xml:space="preserve"
   id="svg4518"
   version="1.1"><metadata
     id="metadata4524"><rdf:RDF><cc:Work
         rdf:about=""><dc:format>image/svg+xml</dc:format><dc:type
           rdf:resource="http://purl.org/dc/dcmitype/StillImage" /><dc:title></dc:title></cc:Work></rdf:RDF></metadata><defs
     id="defs4522"><clipPath
       id="clipPath4534"
       clipPathUnits="userSpaceOnUse"><path
         id="path4532"
         d="M 0,2000 H 2000 V 0 H 0 Z" /></clipPath></defs><g
     transform="matrix(1.3333333,0,0,-1.3333333,0,2666.6667)"
     id="g4526"><g
       id="g4528"><g
         clip-path="url(#clipPath4534)"
         id="g4530"><g
           style="fill:#ffcc00"
           transform="translate(876.9463,456.2646)"
           id="g4536"><path
             id="path4538"
             style="fill:#ffcc00;fill-opacity:1;fill-rule:nonzero;stroke:none"
             d="m 0,0 c 22.988,20.365 54.666,20.138 88.723,17.034 20.957,-1.9 43.998,-9.942 60.085,-29.23 14.287,-17.147 16.913,-46.444 13.103,-88.358 -1.074,-11.795 -5.714,-19.295 -20.121,-17.99 l -34.063,3.098 c -14.412,1.31 -18.459,7.627 -17.205,21.375 l 2.493,27.504 c 1.251,13.754 -2.914,26.024 -20.6,27.63 -24.891,2.261 -27.272,-16.672 -29.173,-37.632 L 10.691,-434.853 c -1.074,-11.782 -8.276,-18.398 -20.067,-17.321 l -33.408,3.03 c -11.782,1.072 -18.275,9.588 -17.204,21.383 l 31.119,342.554 C -26.547,-59.663 -24.463,-22.211 0,0" /></g><g
           style="fill:#ffcc00"
           transform="translate(510.541,292.7285)"
           id="g4540"><path
             id="path4542"
             style="fill:#ffcc00;fill-opacity:1;fill-rule:nonzero;stroke:none"
             d="m 0,0 c -33.859,-57.911 -32.983,-85.087 2.218,-105.666 35.762,-20.914 59.309,-8.008 93.165,49.896 l 84.986,145.352 c 33.528,57.343 33.796,83.856 -2.542,105.105 -35.204,20.579 -59.312,8.007 -92.848,-49.334 z m 101.11,265.442 c 35.14,14.492 72.867,9.955 110.908,-12.283 38.037,-22.238 62.102,-55.355 64.53,-90.292 3.085,-33.812 -5.937,-63.577 -32.822,-109.572 L 157.739,-93.751 c -26.885,-45.981 -50.297,-70.395 -79.707,-82.905 -33.672,-14.598 -70.833,-10.39 -110.011,12.517 -38.041,22.239 -62.434,54.78 -65.428,90.058 -2.522,33.471 6.262,64.14 33.157,110.128 l 85.977,147.052 c 26.888,45.989 49.966,69.819 79.383,82.343" /></g><g
           style="fill:#ffcc00"
           transform="translate(462.5015,794.6182)"
           id="g4544"><path
             id="path4546"
             style="fill:#ffcc00;fill-opacity:1;fill-rule:nonzero;stroke:none"
             d="m 0,0 c 8.791,5.787 20.084,2.983 25.865,-5.808 l 96.169,-146.155 c 5.425,-8.228 3.893,-20.271 -4.897,-26.052 l -360.98,-237.517 c -7.145,-4.71 -21.713,-1.699 -26.416,5.446 l -96.166,146.142 c -6.871,10.443 -4.633,19.001 5.81,25.865 l 24.721,16.27 c 9.346,6.155 18.639,5.178 25.148,-4.71 l 56.761,-86.251 c 7.232,-10.999 18.174,-10.877 28.617,-4.014 l 69.228,45.561 c 9.339,6.142 10.684,17.261 4.897,26.052 l -48.083,73.084 c -6.509,9.875 -3.529,19.71 5.807,25.864 l 24.731,16.265 c 8.239,5.426 20.08,2.977 25.503,-5.266 l 48.448,-73.619 c 5.787,-8.791 17.448,-9.768 26.245,-3.987 l 89.004,58.566 c 9.343,6.142 12.685,15.428 6.172,25.316 l -56.764,86.264 c -5.422,8.243 -2.237,21.355 6.005,26.775 z" /></g><g
           style="fill:#ffcc00"
           transform="translate(443.7554,1016.7344)"
           id="g4548"><path
             id="path4550"
             style="fill:#ffcc00;fill-opacity:1;fill-rule:nonzero;stroke:none"
             d="m 0,0 30.086,-177.68 c 1.64,-9.727 -4.713,-19.468 -15.096,-21.234 l -426.046,-72.114 c -10.377,-1.753 -20.01,3.946 -21.88,14.978 l -5.814,34.362 c -1.87,11.032 3.837,20.66 15.511,22.639 l 359.257,60.815 c 11.025,1.86 17.709,9.661 15.846,20.686 l -18.007,106.362 c -2.081,12.31 3.415,19.248 15.732,21.329 l 29.186,4.95 C -10.852,16.846 -1.752,10.376 0,0" /></g><g
           style="fill:#ffcc00"
           transform="translate(574.918,1365.8789)"
           id="g4552"><path
             id="path4554"
             style="fill:#ffcc00;fill-opacity:1;fill-rule:nonzero;stroke:none"
             d="m 0,0 -19.214,-37.452 c -6.607,-12.879 -14.876,-16.023 -28.678,-14.123 l -193.292,25.235 c -4.696,0.93 -9.754,-4.609 -12.152,-9.285 -5.105,-9.956 9.868,-41.28 50.836,-62.3 l 104.163,-53.429 c 9.363,-4.803 12.481,-16.009 7.681,-25.369 l -15.913,-31.023 c -4.198,-8.195 -15.425,-12.785 -24.791,-7.982 l -385.061,197.517 c -9.363,4.797 -12.183,16.599 -7.981,24.794 l 15.909,31.009 c 5.098,9.955 15.729,13.374 25.678,8.27 l 139.866,-71.74 c 6.432,-3.298 8.848,2.857 4.496,8.777 L -439.59,130.132 c -7.536,11.253 -10.065,22.172 -3.469,35.044 l 18.318,35.699 c 5.098,9.941 15.649,6.008 20.569,-1.686 l 83.09,-129.108 c 8.687,-13.328 15.976,-19.282 30.675,-20.901 L -11.869,18.652 C -1.288,17.669 4.8,9.359 0,0" /></g><g
           style="fill:#ffcc00"
           transform="translate(433.3823,1756.0347)"
           id="g4556"><path
             id="path4558"
             style="fill:#ffcc00;fill-opacity:1;fill-rule:nonzero;stroke:none"
             d="m 0,0 -6.449,-4.55 c -8.608,-6.061 -10.665,-17.97 -4.6,-26.574 l 60.611,-86.009 c 6.058,-8.611 17.969,-10.678 26.573,-4.617 l 6.449,4.55 c 45.16,31.819 49.766,58.399 19.081,101.946 C 71.358,27.751 45.163,31.819 0,0 m 343.662,-250.216 -31.719,-22.352 c -11.286,-7.961 -20.984,-6.75 -31.411,1.191 l -129.884,97.55 c -11.34,8.096 -18.666,9.367 -30.494,1.037 l -5.38,-3.793 c -10.212,-7.199 -12.179,-15.829 -4.983,-26.038 l 89.408,-126.874 c 6.051,-8.604 4.151,-19.589 -4.449,-25.657 l -29.568,-20.841 c -9.139,-6.436 -19.06,-3.773 -25.125,4.824 l -248.888,353.212 c -5.686,8.055 -3.997,20.519 4.065,26.192 l 78.494,55.309 c 71.498,50.391 136.567,39.111 186.948,-32.388 30.307,-43.011 39.376,-83.287 26.297,-120.658 -4.593,-12.893 -4.098,-18.171 5.034,-25.417 l 150.885,-112.51 c 8.373,-6.168 8.838,-17.107 0.77,-22.787" /></g><g
           style="fill:#ffcc00"
           transform="translate(860.9229,1885.29)"
           id="g4560"><path
             id="path4562"
             style="fill:#ffcc00;fill-opacity:1;fill-rule:nonzero;stroke:none"
             d="m 0,0 c -1.967,4.362 -7.362,4.911 -7.071,-1.699 l -5.781,-174.964 c -0.986,-11.447 8.323,-16.07 18.733,-14.558 l 37.101,5.392 c 11.718,1.713 16.722,8.417 12.969,20.499 z m 171.451,-337.938 -34.491,-5.018 c -13.016,-1.9 -21.315,4.877 -24.875,15.649 l -22.201,61.236 c -4.309,11.346 -13.913,17.923 -25.624,16.217 l -61.831,-8.992 c -10.41,-1.525 -18.562,-14.003 -18.636,-22.653 l -3.081,-65.578 c -1,-11.447 -8.416,-19.843 -19.482,-21.449 l -33.842,-4.924 c -11.066,-1.606 -17.599,6.744 -17.071,16.793 l 20.355,440.285 c 0.248,11.996 6.557,18.893 18.924,20.686 l 61.831,9.006 c 13.016,1.893 21.125,-3.573 25.52,-15.562 L 184.979,-316.69 c 3.657,-11.44 -2.462,-19.643 -13.528,-21.248" /></g><g
           style="fill:#ffcc00"
           transform="translate(1265.7471,1506.6685)"
           id="g4564"><path
             id="path4566"
             style="fill:#ffcc00;fill-opacity:1;fill-rule:nonzero;stroke:none"
             d="m 0,0 c -29.537,-19.021 -65.344,-21.958 -104.913,-7.58 -39.569,14.364 -68.632,39.017 -78.474,70.95 -10.032,33.391 -6.803,62.889 12.532,118.839 l 97.948,283.466 c 3.224,9.326 13.691,15.455 23.643,12.016 l 32.943,-11.387 C -5.125,462.437 -0.652,453.245 -4.52,442.045 L -106.124,148.009 c -18.255,-52.833 -11.48,-79.534 23.335,-91.563 34.81,-12.029 55.79,4.375 74.266,57.837 L 93.078,408.327 c 3.653,10.57 13.692,15.447 24.259,11.801 l 32.327,-11.173 c 10.567,-3.653 15.02,-14.933 11.584,-24.881 L 63.725,101.846 C 43.965,44.658 27.647,17.589 0,0" /></g><g
           style="fill:#ffcc00"
           transform="translate(1375.2695,1358.8208)"
           id="g4568"><path
             id="path4570"
             style="fill:#ffcc00;fill-opacity:1;fill-rule:nonzero;stroke:none"
             d="m 0,0 c -81.734,86.545 -21.589,172.287 -9.63,183.581 6.693,6.328 16.435,5.579 25.125,0.213 L 39.299,170.08 c 4.569,-2.917 8.683,-5.366 10.938,-7.748 4.971,-5.258 5.259,-11.32 -1.056,-20.914 -23.41,-37.479 -22.958,-70.522 0.073,-94.908 21.677,-22.961 52.351,-23.83 75.306,-2.154 21.519,20.318 25.453,43.928 19.528,113.427 l -5.255,60.165 c -4.194,48.505 3.138,93.423 40.436,128.647 49.732,46.952 118.903,41.72 168.123,-10.396 66.829,-70.77 21.141,-155.535 11.099,-165.022 -6.219,-5.861 -14.588,-5.62 -22.369,-1.218 L 306.37,187.1 c -2.284,1.458 -5.02,3.398 -6.379,4.83 -5.412,5.74 -5.231,12.243 -0.314,21.409 16.739,32.099 16.073,57.697 -1.988,76.83 -18.059,19.122 -46.406,20.399 -66.49,1.432 C 212.553,273.993 206.732,249.5 210.583,205.19 l 3.479,-41.038 C 220.057,97.45 229.566,39.486 175.054,-11.989 123.415,-60.761 52.833,-55.944 0,0" /></g><g
           style="fill:#ffcc00"
           transform="translate(1549.9287,1060.5957)"
           id="g4572"><path
             id="path4574"
             style="fill:#ffcc00;fill-opacity:1;fill-rule:nonzero;stroke:none"
             d="m 0,0 c -10.019,-3.238 -20.154,2.462 -23.389,12.478 l -53.843,166.459 c -3.038,9.387 1.642,20.58 11.658,23.818 l 411.142,132.962 c 8.132,2.636 21.386,-4.141 24.019,-12.27 L 423.416,156.98 c 3.848,-11.882 -0.588,-19.535 -12.477,-23.389 l -28.163,-9.105 c -10.633,-3.446 -19.338,-0.034 -22.987,11.226 l -31.768,98.246 c -4.055,12.524 -14.636,15.314 -26.521,11.467 l -78.854,-25.496 c -10.638,-3.439 -14.89,-13.802 -11.652,-23.811 l 26.915,-83.226 c 3.647,-11.267 -1.843,-19.957 -12.48,-23.396 L 197.266,80.39 c -9.387,-3.037 -20.148,2.462 -23.182,11.855 l -27.126,83.856 c -3.234,10.008 -14.22,14.063 -24.231,10.818 L 21.342,154.137 C 10.705,150.698 5.018,142.636 8.664,131.37 L 40.437,33.124 C 43.474,23.737 36.917,11.942 27.534,8.898 Z" /></g><g
           style="fill:#ffcc00"
           transform="translate(1196,271.9561)"
           id="g4576"><path
             id="path4578"
             style="fill:#ffcc00;fill-opacity:1;fill-rule:nonzero;stroke:none"
             d="m 0,0 v 89.062 c 266.319,0 482.982,216.663 482.982,482.982 h 89.062 C 572.044,256.618 315.426,0 0,0" /></g></g></g></g></svg>