<?xml version="1.0" encoding="UTF-8" standalone="no"?>
<!-- Generator: Adobe Illustrator 18.0.0, SVG Export Plug-In . SVG Version: 6.00 Build 0)  -->

<svg
   xmlns:dc="http://purl.org/dc/elements/1.1/"
   xmlns:cc="http://creativecommons.org/ns#"
   xmlns:rdf="http://www.w3.org/1999/02/22-rdf-syntax-ns#"
   xmlns:svg="http://www.w3.org/2000/svg"
   xmlns="http://www.w3.org/2000/svg"
   xmlns:sodipodi="http://sodipodi.sourceforge.net/DTD/sodipodi-0.dtd"
   xmlns:inkscape="http://www.inkscape.org/namespaces/inkscape"
   version="1.1"
   id="Capa_1"
   x="0px"
   y="0px"
   viewBox="0 0 410.986 410.986"
   style="enable-background:new 0 0 410.986 410.986;"
   xml:space="preserve"
   sodipodi:docname="sea-waves.svg"
   inkscape:version="0.92.3 (2405546, 2018-03-11)"><metadata
   id="metadata931"><rdf:RDF><cc:Work
       rdf:about=""><dc:format>image/svg+xml</dc:format><dc:type
         rdf:resource="http://purl.org/dc/dcmitype/StillImage" /></cc:Work></rdf:RDF></metadata><defs
   id="defs929" /><sodipodi:namedview
   pagecolor="#ffffff"
   bordercolor="#666666"
   borderopacity="1"
   objecttolerance="10"
   gridtolerance="10"
   guidetolerance="10"
   inkscape:pageopacity="0"
   inkscape:pageshadow="2"
   inkscape:window-width="1920"
   inkscape:window-height="1001"
   id="namedview927"
   showgrid="false"
   inkscape:zoom="1.9660037"
   inkscape:cx="205.493"
   inkscape:cy="205.493"
   inkscape:window-x="-9"
   inkscape:window-y="-9"
   inkscape:window-maximized="1"
   inkscape:current-layer="g894" />
<g
   id="g894">
	
	
	
	
	<g
   id="g892">
		<path
   d="M355.105,326.906c-14.799,0-22.337-6.899-28.988-12.986c-6.005-5.497-10.749-9.839-20.886-9.839    c-10.137,0-14.881,4.342-20.887,9.838c-6.65,6.088-14.188,12.987-28.988,12.987c-14.8,0-22.337-6.899-28.988-12.987    c-6.005-5.496-10.748-9.838-20.885-9.838c-10.136,0-14.879,4.342-20.884,9.838c-6.65,6.088-14.188,12.987-28.988,12.987    c-14.798,0-22.334-6.899-28.984-12.987c-6.004-5.496-10.747-9.838-20.882-9.838c-10.136,0-14.879,4.342-20.884,9.838    c-6.65,6.088-14.188,12.987-28.987,12.987c-14.8,0-22.338-6.899-28.989-12.987c-6.005-5.496-10.749-9.838-20.885-9.838    c-3.313,0-6-2.687-6-6c0-3.315,2.687-6,6-6c14.799,0,22.337,6.899,28.988,12.986c6.005,5.497,10.749,9.839,20.886,9.839    c10.136,0,14.879-4.342,20.884-9.839c6.65-6.087,14.188-12.986,28.987-12.986c14.798,0,22.335,6.899,28.985,12.987    c6.004,5.496,10.746,9.838,20.881,9.838c10.137,0,14.88-4.342,20.885-9.839c6.65-6.087,14.188-12.986,28.987-12.986    c14.8,0,22.337,6.899,28.988,12.986c6.005,5.497,10.749,9.839,20.885,9.839c10.138,0,14.881-4.342,20.886-9.839    c6.651-6.087,14.189-12.986,28.989-12.986s22.338,6.899,28.989,12.986c6.005,5.497,10.748,9.839,20.885,9.839    c10.139,0,14.883-4.342,20.89-9.839c6.651-6.087,14.19-12.986,28.991-12.986c3.313,0,6,2.685,6,6c0,3.313-2.687,6-6,6    c-10.139,0-14.883,4.342-20.89,9.839C377.445,320.007,369.907,326.906,355.105,326.906z"
   id="path890" />
	</g>
</g>
<g
   id="g896">
</g>
<g
   id="g898">
</g>
<g
   id="g900">
</g>
<g
   id="g902">
</g>
<g
   id="g904">
</g>
<g
   id="g906">
</g>
<g
   id="g908">
</g>
<g
   id="g910">
</g>
<g
   id="g912">
</g>
<g
   id="g914">
</g>
<g
   id="g916">
</g>
<g
   id="g918">
</g>
<g
   id="g920">
</g>
<g
   id="g922">
</g>
<g
   id="g924">
</g>
</svg>